PathFileType	4	(X/Y/Z)	../Python\walking\Walking17\task.trc
DataRate	CameraRate	NumFrames	NumMarkers	Units	OrigDataRate	OrigDataStartFrame	OrigNumFrames
200.000000	200.000000	4	30	mm	200.000000	262	350
Frame#	Time	CLAV			STRN			RASI			LASI			PE01			RTH1			RTH2			RTH3			RTB3			RHEE			RD5M			RTOE			LTH2			LTH3			LTB2			LTB3			LHEE			LTOE			LD5M			RBAK			RTB2			C7			RTB1			LPSI			PE03			PE02			RPSI			T10			LTH1			LTB1			
		X1	Y1	Z1	X2	Y2	Z2	X3	Y3	Z3	X4	Y4	Z4	X5	Y5	Z5	X6	Y6	Z6	X7	Y7	Z7	X8	Y8	Z8	X9	Y9	Z9	X10	Y10	Z10	X11	Y11	Z11	X12	Y12	Z12	X13	Y13	Z13	X14	Y14	Z14	X15	Y15	Z15	X16	Y16	Z16	X17	Y17	Z17	X18	Y18	Z18	X19	Y19	Z19	X20	Y20	Z20	X21	Y21	Z21	X22	Y22	Z22	X23	Y23	Z23	X24	Y24	Z24	X25	Y25	Z25	X26	Y26	Z26	X27	Y27	Z27	X28	Y28	Z28	X29	Y29	Z29	X30	Y30	Z30	

263	1.31	401.5391540527346	1255.027221679688	157.5476684570313	463.8556823730471	1072.094604492188	153.3935852050782	428.0124816894534	877.675170898438	286.9888610839845	417.068542480469	856.1152954101567	61.18005752563479	229.3037872314454	952.5117187500005	188.8319549560547	402.5645446777346	585.0130004882815	320.8779296875001	434.0633850097659	514.7928466796877	300.2050170898439	450.5172424316409	573.5862426757815	310.2784423828126	444.7297363281252	215.0199279785157	264.8995666503907	350.0730285644532	29.32598114013673	200.1507110595704	503.8111267089846	15.17029190063477	257.834197998047	538.216247558594	32.76140213012697	201.6214141845704	353.9490661621095	534.6010742187502	34.87246322631837	420.2687072753909	575.7167968750002	20.18305587768555	198.1788177490236	305.045623779297	63.3522872924805	246.1119842529298	292.9390869140626	57.32025527954104	52.3796195983887	208.5612182617189	138.7723693847657	163.6900634765626	70.37406158447268	97.31805419921881	124.4827423095704	90.92183685302737	63.40632247924808	236.4018859863282	1249.532348632813	270.2678222656251	417.3893737792971	251.3219451904298	285.6014099121095	279.4678649902345	1349.818237304688	166.3702392578126	460.3418884277346	291.7948303222657	273.3731689453126	223.5047912597657	913.5175781250005	150.3346710205079	212.3066864013673	890.5419311523442	168.9016876220704	214.6191406250001	895.351196289063	219.4225158691407	229.4542694091798	921.2448120117192	239.4348754882814	248.8248596191407	1052.133056640625	176.6738586425782	373.2863769531251	591.345642089844	20.34463691711426	259.6901245117189	352.5102539062501	46.78932571411134	
264	1.315	408.3657226562502	1256.16455078125	156.9676666259766	470.3200378417971	1073.126708984375	152.6669006347657	434.4787597656252	878.4101562500005	287.179412841797	423.2276916503909	857.4151000976567	61.27382278442386	235.8817291259767	953.8316040039067	189.6488342285157	406.5631103515627	585.5187988281252	320.8023986816407	437.3977966308596	514.986022949219	300.0438842773439	454.4161071777346	573.665466308594	309.9618530273439	445.6001892089846	214.9811248779298	264.7141723632814	350.0546875000001	29.4297389984131	200.1116485595704	503.8252563476565	15.17261981964112	257.8426818847657	538.2398071289065	32.72356033325197	201.6051025390626	365.7170715332032	536.077087402344	35.0685272216797	431.2442626953127	578.4275512695315	20.10164260864259	213.7030487060548	305.0062561035157	63.47009277343753	261.7561340332032	293.4252319335939	57.34712982177737	68.74227142333987	205.4410552978517	138.6983795166016	184.1829833984376	70.64463043212893	96.37021636962896	144.4057922363282	90.51094055175784	62.51505661010745	244.0079040527345	1251.115844726563	270.9523010253907	418.4544067382815	251.3760681152345	285.4915161132814	286.5235595703126	1351.068115234375	166.4506225585938	461.5422363281252	291.6627807617189	273.1202087402345	229.7946624755861	914.8576049804692	151.1583709716797	218.6098480224611	891.9916992187505	169.5828399658204	221.061492919922	896.6708374023442	220.1002502441407	235.9782257080079	922.5543823242192	240.1736297607423	255.4883117675782	1053.4970703125	177.4811248779297	383.923797607422	593.1216430664065	20.48019027709962	274.6072082519532	353.2846069335939	47.10580444335939	
265	1.32	415.1578674316409	1257.23974609375	156.3847045898438	476.7488708496096	1074.1005859375	151.9477081298829	440.9348449707034	879.1008911132817	287.3645019531251	429.3872070312502	858.696166992188	61.36575317382815	242.4520416259767	955.1003417968755	190.4648590087891	410.6124572753909	586.019470214844	320.6949157714845	440.7404479980471	515.167419433594	299.8528137207032	458.3527832031252	573.7216796875002	309.5980834960939	446.4572753906252	214.9458618164064	264.5152282714845	350.038543701172	29.5333824157715	200.0670013427736	503.8384399414065	15.18630409240723	257.8472290039064	538.2625122070315	32.68698883056642	201.5843353271486	377.4968261718751	537.6159667968752	35.27598190307619	442.2306823730471	581.177673339844	20.11667251586915	229.2852325439454	304.6687927246095	63.54340362548831	277.4667358398439	293.7205810546876	57.38073348999026	85.39039611816409	201.8685760498048	138.5275421142579	204.9475097656251	70.60987091064456	95.58364868164065	164.6380767822266	89.70094299316409	61.7353439331055	251.5659637451173	1252.639770507813	271.605926513672	419.4920654296877	251.4317016601564	285.3598022460939	293.5494995117189	1352.260986328125	166.5145111083985	462.7257385253909	291.5347900390626	272.8497619628907	236.0787048339845	916.1513061523442	151.9668884277344	224.910369873047	893.3917846679692	170.2471466064454	227.5017242431642	897.9285278320317	220.7612609863282	242.4942016601564	923.7956542968755	240.9011230468751	262.1285705566407	1054.801391601563	178.2756652832032	394.570495605469	594.947448730469	20.65292358398438	289.4707031250001	353.859100341797	47.39118576049806	
266	1.325	421.9169006347659	1258.24951171875	155.8010406494141	483.1451721191409	1075.013793945313	151.2397155761719	447.3826599121096	879.7471313476567	287.546112060547	435.5529479980471	859.953979492188	61.46165466308597	249.0141601562501	956.3126831054692	191.2734680175782	414.6955871582034	586.509704589844	320.5557861328126	444.0647277832034	515.3293457031252	299.637176513672	462.3063964843752	573.745056152344	309.1961669921876	447.3011779785159	214.9111938476564	264.3063354492189	350.0255126953126	29.63549423217775	200.0161132812501	503.8496093750002	15.21192646026612	257.8462524414064	538.2832031250002	32.65086746215822	201.5582275390626	389.2680969238284	539.206726074219	35.4968948364258	453.2060546875002	583.9526367187502	20.22429275512696	244.9259338378907	304.022186279297	63.56628799438479	293.2408142089845	293.814666748047	57.4228324890137	102.3279418945313	197.8639678955079	138.2646942138672	225.9664916992189	70.281120300293	94.9546813964844	185.1630401611329	88.51360321044925	61.06491851806643	259.0759887695314	1254.098876953125	272.2286987304689	420.5023193359377	251.4881744384767	285.2078857421876	300.5456848144532	1353.392333984375	166.5625000000001	463.8948059082034	291.4093322753907	272.5658264160157	242.3615722656251	917.3923339843755	152.7537994384766	231.2128143310548	894.7351074218755	170.8888549804688	233.9419097900392	899.1183471679692	221.3999023437501	249.0046997070314	924.9646606445317	241.6129150390626	268.747528076172	1056.041259765625	179.0549621582032	405.2097778320315	596.8096313476565	20.86370658874512	304.2794494628907	354.2143859863282	47.63537979125978	
